plot -
IRON MAN 3
MARVEL STUDIOS presents in association with PARAMOUNT PICTURES and DMG ENTERTAINMENT

Genre: Action-adventure
Rating: TBD
U.S. Release date: May 3, 2013, India- 26 may 2013
Running time: TBD

Cast: Robert Downey Jr., Gwyneth Paltrow, Don Cheadle, Guy Pearce, Rebecca Hall, Stephanie Szostak, James Badge Dale with Jon Favreau and Ben Kingsley



Director: Shane Black
Producer: Kevin Feige

Executive Producers: Jon Favreau, Louis DΓÇÖEsposito, Stephen Broussard, Victoria Alonso, Alan Fine, Charles Newirth, Stan Lee, Dan Mintz
Screenplay by: Drew Pearce and Shane Black (credit not final)

Marvel StudiosΓÇÖ ΓÇ£Iron Man 3ΓÇ¥ pits brash-but-brilliant industrialist Tony Stark/Iron Man against an enemy whose reach knows no bounds. When Stark finds his personal world destroyed at his enemyΓÇÖs hands, he embarks on a harrowing quest to find those responsible. This journey, at every turn, will test his mettle. With his back against the wall, Stark is left to survive by his own devices, relying on his ingenuity and instincts to protect those closest to him. As he fights his way back, Stark discovers the answer to the question that has secretly haunted him: does the man make the suit or does the suit make the man?

General
Complete name :Iron man 3 - super cam rip english audio by-{zinkslane}.flv
Format : Flash Video
File size : 312 MiB
Duration : 1h 57mn
Overall bit rate : 370 Kbps
Tagged date : UTC 2013-04-27 18:32:21
Tagg
Video
Format : AVC
Format/Info : Advanced Video Codec
Format profile : High@L4.1
Format settings, CABAC : Yes
Format settings, ReFrames : 4 frames

Duration : 1h 57mn
Bit rate : 281 Kbps
Width : 680 pixels
Height : 288 pixels
Display aspect ratio : 2.35:1
Frame rate mode : Constant
Frame rate : 25.000 fps
Color space : YUV
Chroma subsampling : 4:2:0
Bit depth : 8 bits
Scan type : Progressive
Bits/(Pixel*Frame) : 0.057
Stream size : 239 MiB (77%)
Writing library : x264 core 129

Audio
Format : AAC
Format/Info : Advanced Audio Codec
Format profile : LC
Codec ID : 10
Duration : 1h 57mn
Bit rate : 80.7 Kbps
Channel(s) : 2 channels
Channel positions : Front: L R
Sampling rate : 44.1 KHz
Compression mode : Lossy
Delay relative to video : 40ms
Stream size : 71.2 MiB (23%)

seedin will be slow be patient..:)
do share seed n' enjoy....
